<?xml version="1.0" encoding="utf-8"?>
<!-- Svg Vector Icons : http://www.onlinewebfonts.com/icon -->
<!DOCTYPE svg PUBLIC "-//W3C//DTD SVG 1.1//EN" "http://www.w3.org/Graphics/SVG/1.1/DTD/svg11.dtd">
<svg version="1.1" xmlns="http://www.w3.org/2000/svg" xmlns:xlink="http://www.w3.org/1999/xlink" x="0px" y="0px" viewBox="0 0 1000 1000" enable-background="new 0 0 1000 1000" xml:space="preserve">
<metadata> Svg Vector Icons : http://www.onlinewebfonts.com/icon </metadata>
<g><path d="M915.9,510.2c-25.3-25.3-66.2-25.3-91.4,0L565.4,769.2V74.7c0-35.7-28.9-64.7-64.7-64.7C465,10,436,38.9,436,74.7v696L175.6,510.2c-25.3-25.2-66.2-25.2-91.4,0c-25.2,25.3-25.3,66.2,0,91.4l369.4,369.4c12.8,12.8,29.6,19.1,46.4,18.9c0.2,0,0.4,0,0.6,0c0,0,0.1,0,0.1,0c0,0,0.1,0,0.1,0c2.1,0,4.2-0.1,6.3-0.3c1-0.1,1.9-0.3,2.9-0.4c1.1-0.2,2.3-0.3,3.4-0.5c1.1-0.2,2.1-0.5,3.2-0.8c1-0.2,2-0.5,2.9-0.8c1-0.3,2.1-0.7,3.1-1.1c1-0.3,1.9-0.7,2.9-1.1c1-0.4,1.9-0.9,2.8-1.3c1-0.5,2-0.9,2.9-1.4c0.9-0.5,1.7-1,2.6-1.5c0.9-0.6,1.9-1.1,2.8-1.7c1-0.6,1.9-1.4,2.8-2.1c0.8-0.6,1.5-1.1,2.3-1.7c1.7-1.4,3.2-2.8,4.7-4.3l369.4-369.4C941.1,576.4,941.1,535.4,915.9,510.2z"/></g>
</svg>