<?xml version="1.0" encoding="utf-8"?>
<!-- Svg Vector Icons : http://www.onlinewebfonts.com/icon -->
<!DOCTYPE svg PUBLIC "-//W3C//DTD SVG 1.1//EN" "http://www.w3.org/Graphics/SVG/1.1/DTD/svg11.dtd">
<svg version="1.1" xmlns="http://www.w3.org/2000/svg" xmlns:xlink="http://www.w3.org/1999/xlink" x="0px" y="0px" viewBox="0 0 1000 1000" enable-background="new 0 0 1000 1000" xml:space="preserve">
<metadata> Svg Vector Icons : http://www.onlinewebfonts.com/icon </metadata>
<g><path d="M67.6,487c17.3,17.3,45.6,17.3,62.9,0l324.8-324.9v783.3c0,24.7,19.9,44.6,44.6,44.6c24.7,0,44.6-19.9,44.6-44.6V162.1L869.4,487c17.3,17.3,45.6,17.3,62.9,0c17.3-17.3,17.3-45.6,0-62.9L531.5,23c-4.2-4.2-9-7.5-14.5-9.6c-5.4-2.3-11.2-3.4-16.9-3.4c-5.7,0-11.6,1.1-17.1,3.4c-5.4,2.3-10.3,5.6-14.5,9.6l-401,400.8C50.3,441.4,50.3,469.5,67.6,487L67.6,487z"/></g>
</svg>